<?xml version="1.0" encoding="iso-8859-1"?>
<!-- Generator: Adobe Illustrator 19.0.0, SVG Export Plug-In . SVG Version: 6.00 Build 0)  -->
<svg version="1.1" id="Capa_1" xmlns="http://www.w3.org/2000/svg" xmlns:xlink="http://www.w3.org/1999/xlink" x="0px" y="0px"
	 viewBox="0 0 512 512" style="enable-background:new 0 0 512 512;" xml:space="preserve">
<path style="fill:#303C42;" d="M170.667,512c-47.063,0-85.333-38.281-85.333-85.333C38.271,426.667,0,388.385,0,341.333
	S38.271,256,85.333,256c19.208,0,37.438,6.302,52.333,17.917l136.25-136.25C262.292,122.76,256,104.531,256,85.333
	C256,38.281,294.271,0,341.333,0s85.333,38.281,85.333,85.333c47.063,0,85.333,38.281,85.333,85.333S473.729,256,426.667,256
	c-19.208,0-37.438-6.302-52.333-17.917l-136.25,136.25C249.708,389.24,256,407.469,256,426.667C256,473.719,217.729,512,170.667,512
	z"/>
<path style="fill:#E6E6E6;" d="M85.333,277.333c-35.292,0-64,28.708-64,64s28.708,64,64,64H96c5.896,0,10.667,4.771,10.667,10.667
	v10.667c0,35.292,28.708,64,64,64s64-28.708,64-64c0-17.094-6.667-33.167-18.75-45.25c-2-2-3.125-4.708-3.125-7.542
	c0-2.823,1.125-5.542,3.125-7.542l150.417-150.417c2-2,4.708-3.125,7.542-3.125l0,0c2.833,0,5.542,1.125,7.542,3.125
	c12.083,12.094,28.146,18.75,45.25,18.75c35.292,0,64-28.708,64-64s-28.708-64-64-64H416c-5.896,0-10.667-4.771-10.667-10.667
	V85.333c0-35.292-28.708-64-64-64s-64,28.708-64,64c0,17.094,6.667,33.167,18.75,45.25c2,2,3.125,4.708,3.125,7.542
	c0,2.823-1.125,5.542-3.125,7.542L145.667,296.083c-2,2-4.708,3.125-7.542,3.125l0,0c-2.833,0-5.542-1.125-7.542-3.125
	C118.5,283.99,102.438,277.333,85.333,277.333z"/>
<path style="opacity:0.1;enable-background:new    ;" d="M459.811,116.189c5.923,9.699,9.522,20.971,9.522,33.145
	c0,35.292-28.708,64-64,64c-17.104,0-33.167-6.656-45.25-18.75c-2-2-4.708-3.125-7.542-3.125c-2.833,0-5.542,1.125-7.542,3.125
	L194.583,345c-2,2-3.125,4.719-3.125,7.542c0,2.833,1.125,5.542,3.125,7.542c12.083,12.083,18.75,28.156,18.75,45.25
	c0,35.292-28.708,64-64,64c-12.173,0-23.444-3.6-33.143-9.523c11.249,18.419,31.358,30.857,54.477,30.857c35.292,0,64-28.708,64-64
	c0-17.094-6.667-33.167-18.75-45.25c-2-2-3.125-4.708-3.125-7.542c0-2.823,1.125-5.542,3.125-7.542l150.417-150.417
	c2-2,4.708-3.125,7.542-3.125c2.833,0,5.542,1.125,7.542,3.125c12.083,12.094,28.146,18.75,45.25,18.75c35.292,0,64-28.708,64-64
	C490.667,147.548,478.23,127.438,459.811,116.189z"/>
<linearGradient id="SVGID_1_" gradientUnits="userSpaceOnUse" x1="-43.3674" y1="638.5245" x2="-26.0389" y2="630.4443" gradientTransform="matrix(21.3333 0 0 -21.3333 996.3334 13791.667)">
	<stop  offset="0" style="stop-color:#FFFFFF;stop-opacity:0.2"/>
	<stop  offset="1" style="stop-color:#FFFFFF;stop-opacity:0"/>
</linearGradient>
<path style="fill:url(#SVGID_1_);" d="M170.667,512c-47.063,0-85.333-38.281-85.333-85.333C38.271,426.667,0,388.385,0,341.333
	S38.271,256,85.333,256c19.208,0,37.438,6.302,52.333,17.917l136.25-136.25C262.292,122.76,256,104.531,256,85.333
	C256,38.281,294.271,0,341.333,0s85.333,38.281,85.333,85.333c47.063,0,85.333,38.281,85.333,85.333S473.729,256,426.667,256
	c-19.208,0-37.438-6.302-52.333-17.917l-136.25,136.25C249.708,389.24,256,407.469,256,426.667C256,473.719,217.729,512,170.667,512
	z"/>
<g>
</g>
<g>
</g>
<g>
</g>
<g>
</g>
<g>
</g>
<g>
</g>
<g>
</g>
<g>
</g>
<g>
</g>
<g>
</g>
<g>
</g>
<g>
</g>
<g>
</g>
<g>
</g>
<g>
</g>
</svg>
